<?xml version="1.0" encoding="utf-8"?>
<!-- Generator: Adobe Illustrator 23.0.2, SVG Export Plug-In . SVG Version: 6.00 Build 0)  -->
<svg version="1.1" id="Calque_1" xmlns="http://www.w3.org/2000/svg" xmlns:xlink="http://www.w3.org/1999/xlink" x="0px" y="0px"
	 viewBox="0 0 88.1 86" style="enable-background:new 0 0 88.1 86;" xml:space="preserve">
<path d="M67.1,37.7c-0.1-0.6-0.6-1.1-1.2-1.1c-6.8-0.3-13.6-0.1-20.4,0c-0.8,0-1.4-0.6-1.3-1.4c0.2-2.9,0.3-5.8,0.2-8.7
	c0-0.7-0.7-1.1-1.3-0.8c-7.3,3.4-14.4,9.9-21,14.4c-0.5,0.3-0.6,1-0.2,1.4c6.4,6.2,12.9,9.9,19.4,16.1c0.4,0.4,1.4,0.3,1.5-0.4
	c0.3-1.9,0.6-3.8,0.8-5.7c0.1-0.8,0-3.4,0.6-4.1c1.6-1.7,6.9-0.3,9.1,0c4.2,0.4,8.3,0.8,12.5,1.2c0.7,0.1,1.3-0.4,1.4-1.1
	C67.6,43,67.3,39.4,67.1,37.7z"/>
</svg>
