<?xml version="1.0" encoding="utf-8"?>
<!-- Generator: Adobe Illustrator 23.0.2, SVG Export Plug-In . SVG Version: 6.00 Build 0)  -->
<svg version="1.1" id="Calque_1" xmlns="http://www.w3.org/2000/svg" xmlns:xlink="http://www.w3.org/1999/xlink" x="0px" y="0px"
	 viewBox="0 0 88.13 86.01" style="enable-background:new 0 0 88.13 86.01;" xml:space="preserve">
<style type="text/css">
	.st0{fill:#FFFFFF;}
</style>
<path class="st0" d="M21.89,47.4c0.07,0.7,0.69,1.21,1.39,1.14c4.18-0.4,8.35-0.79,12.53-1.19c2.17-0.21,7.5-1.67,9.07,0.05
	c0.6,0.65,0.47,3.24,0.59,4.08c0.28,1.9,0.55,3.81,0.83,5.71c0.1,0.7,1.07,0.82,1.5,0.4c6.44-6.23,12.88-12.46,19.32-18.69
	c0.44-0.42,0.29-1.1-0.18-1.41c-6.69-4.5-13.69-8.44-21.01-11.82c-0.62-0.29-1.33,0.05-1.35,0.78c-0.1,2.94-0.03,5.83,0.2,8.74
	c0.06,0.76-0.53,1.4-1.29,1.39c-6.74-0.13-13.62-0.28-20.39-0.01c-0.63,0.03-1.15,0.5-1.22,1.13C21.69,39.41,21.42,43.02,21.89,47.4
	z"/>
</svg>
