<?xml version="1.0" encoding="iso-8859-1"?>
<!-- Generator: Adobe Illustrator 18.0.0, SVG Export Plug-In . SVG Version: 6.00 Build 0)  -->
<!DOCTYPE svg PUBLIC "-//W3C//DTD SVG 1.1//EN" "http://www.w3.org/Graphics/SVG/1.1/DTD/svg11.dtd">
<svg version="1.1" id="Capa_1" xmlns="http://www.w3.org/2000/svg" xmlns:xlink="http://www.w3.org/1999/xlink" x="0px" y="0px"
	 viewBox="0 0 400 400" style="enable-background:new 0 0 400 400;" xml:space="preserve">
<g>
	<path d="M328.139,32.267h-2.941v-2.11C325.197,13.527,311.668,0,295.041,0c-16.627,0-30.156,13.527-30.156,30.157v2.11h-34.73
		v-2.11C230.154,13.527,216.625,0,200,0c-16.627,0-30.156,13.527-30.156,30.157v2.11h-34.73v-2.11
		C135.113,13.527,121.584,0,104.957,0C88.332,0,74.803,13.527,74.803,30.157v2.11h-2.943c-24.789,0-44.887,20.096-44.887,44.886
		v277.962c0,24.79,20.098,44.886,44.887,44.886h256.279c24.789,0,44.889-20.096,44.889-44.886V77.152
		C373.027,52.362,352.93,32.267,328.139,32.267z M286.816,30.157c0-4.536,3.689-8.224,8.225-8.224c4.535,0,8.223,3.688,8.223,8.224
		v40.127c0,4.534-3.688,8.223-8.223,8.223c-4.535,0-8.225-3.689-8.225-8.223V30.157z M191.777,30.157
		c0-4.536,3.688-8.224,8.223-8.224s8.223,3.688,8.223,8.224v40.127c0,4.534-3.688,8.223-8.223,8.223s-8.223-3.689-8.223-8.223
		V30.157z M96.736,30.157c0-4.536,3.686-8.224,8.221-8.224c4.535,0,8.227,3.688,8.227,8.224v40.127c0,4.534-3.691,8.223-8.227,8.223
		c-4.535,0-8.221-3.689-8.221-8.223V30.157z M337.117,353.453c0,5.867-4.029,10.639-8.978,10.639H71.859
		c-4.949,0-8.977-4.771-8.977-10.639V118.955h274.234V353.453z"/>
	<path d="M156.098,312.935H243.9c7.338,0,13.307-5.97,13.307-13.307v-3.852c0-7.337-5.969-13.307-13.307-13.307h-54.115
		l30.73-34.225c16.955-17.682,26.682-36.571,26.682-51.824c0-13.639-5.184-25.133-14.984-33.239
		c-9.063-7.492-21.598-11.453-36.256-11.453c-17.789,0-36.199,8.069-49.242,21.587c-5.006,5.189-4.932,13.555,0.168,18.65
		l2.693,2.697c2.477,2.477,5.916,3.897,9.541,3.897h0.002c3.551-0.036,6.996-1.522,9.453-4.08
		c7.297-7.579,17.787-12.288,27.385-12.288c13.785,0,20.773,4.789,20.773,14.228c0,5.695-5.709,17.772-18.301,30.896l-52.223,58.017
		c-2.203,2.449-3.414,5.61-3.414,8.903v5.392C142.793,306.965,148.76,312.935,156.098,312.935z"/>
</g>
<g>
</g>
<g>
</g>
<g>
</g>
<g>
</g>
<g>
</g>
<g>
</g>
<g>
</g>
<g>
</g>
<g>
</g>
<g>
</g>
<g>
</g>
<g>
</g>
<g>
</g>
<g>
</g>
<g>
</g>
</svg>
