<?xml version="1.0" encoding="utf-8"?>
<!-- Generator: Adobe Illustrator 23.0.2, SVG Export Plug-In . SVG Version: 6.00 Build 0)  -->
<svg version="1.1" id="Calque_1" xmlns="http://www.w3.org/2000/svg" xmlns:xlink="http://www.w3.org/1999/xlink" x="0px" y="0px"
	 viewBox="0 0 88.13 86.01" style="enable-background:new 0 0 88.13 86.01;" xml:space="preserve">
<style type="text/css">
	.st0{fill:#050000;}
</style>
<path class="st0" d="M82.01,29.05c-1.29-3.57-3.12-6.91-5.21-10.07c-0.43-0.65-0.9-1.47-1.43-2.25c-0.86-2.03-2.26-3.68-4.08-5.13
	c-3.1-2.47-6.77-5.37-10.42-6.92c-0.16-0.07-0.32,0.11-0.19,0.25c0.1,0.11,0.21,0.22,0.31,0.33c0,0,0,0,0,0
	c-0.24-0.14-0.47-0.3-0.71-0.44c-0.06-0.03-0.11-0.03-0.17-0.02c-1.53-0.77-3.16-1.35-4.81-1.84c-1.01-0.37-2.06-0.67-3.17-0.87
	c-0.29-0.05-0.52,0.07-0.67,0.25c-1.16-0.37-2.35-0.66-3.59-0.83c-5.42-0.74-12.42-0.45-17.37,2.52c-0.08-0.11-0.22-0.18-0.38-0.1
	c-0.44,0.23-0.87,0.48-1.3,0.73c-0.09,0-0.19,0.01-0.29,0.06c-2.48,1.09-4.76,2.48-6.91,4.04c-1.94,1.22-3.8,2.57-5.58,4.01
	c-2.7,2.19-5.46,4.51-6.28,8.04c-0.04,0.19-0.01,0.34,0.06,0.46C7.91,23.88,6.77,27.11,6,30.21c-0.09,0.35-0.16,0.71-0.24,1.06
	c-0.53,1.47-0.93,2.99-1.17,4.53c-0.83,3.32-1.02,6.92-0.91,10.14c0.11,3.04,0.8,6.12,2.04,8.94c0.98,3.66,2.76,7.32,4.92,9.96
	c1.84,2.25,4.01,4.36,6.1,6.39c0.72,0.69,1.45,1.33,2.25,1.84c0.01,0.01,0.02,0.02,0.02,0.03c1.88,1.82,4.34,2.93,6.65,4.1
	c4.64,2.34,9.38,4.23,14.67,4.03c3.61-0.14,7.65-0.69,11.36-1.78c2.03-0.4,3.99-0.94,5.75-1.52c5.47-1.82,10.55-4.86,14.71-8.85
	c6.51-6.24,11.45-16.05,11.28-25.44C84.75,38.96,83.55,33.3,82.01,29.05z M77.34,28.44c0.43,2.05,0.9,4.08,1.4,6.11
	c-0.23-0.6-0.47-1.19-0.72-1.78c-0.5-1.88-0.93-3.78-1.3-5.71C76.94,27.5,77.15,27.96,77.34,28.44z M77.9,38.06
	c-0.07,0.07-0.14,0.14-0.21,0.22c-0.18-0.38-0.36-0.75-0.56-1.12c0.14-0.36-0.11-0.74-0.44-0.83c-0.13-0.24-0.26-0.49-0.4-0.73
	c-0.75-2.36-1.35-4.75-1.81-7.19c0.01,0,0.01,0,0.02,0c0.72,1.39,1.38,2.81,1.98,4.26C76.9,34.48,77.36,36.28,77.9,38.06z
	 M74.41,35.99c-0.38-0.85-0.73-1.71-1.1-2.57c0.05-0.09,0.08-0.19,0.09-0.29c0.3,0.56,0.6,1.13,0.9,1.68
	c0.28,0.52,0.56,1.04,0.84,1.56c0.1,0.32,0.2,0.63,0.3,0.95c-0.12,0.13-0.23,0.27-0.34,0.4C74.87,37.11,74.64,36.52,74.41,35.99z
	 M74.99,41.1c-0.3,0.3-0.6,0.6-0.89,0.9c-0.03-0.07-0.05-0.14-0.08-0.2c0.28-0.35,0.56-0.7,0.83-1.06
	C74.89,40.86,74.93,40.98,74.99,41.1z M68.92,38.74c-0.03-0.23-0.21-0.43-0.43-0.5c0.01-0.01,0.02-0.03,0.03-0.04
	c0.28,0.12,0.56,0.21,0.88,0.27c0.02,0,0.04,0,0.06,0c0.4,0.29,0.77,0.61,1.12,0.94c-0.14,0.24-0.32,0.46-0.47,0.7
	c-0.14,0.07-0.28,0.14-0.42,0.21c0.04-0.05,0.09-0.1,0.13-0.15C70.37,39.49,69.74,38.35,68.92,38.74z M68.5,36.44
	c0.02-0.05,0.04-0.1,0.06-0.15c0.17-0.1,0.35-0.2,0.52-0.3c0.31,0.45,0.63,0.9,0.93,1.36C69.52,37.03,69.01,36.74,68.5,36.44z
	 M70.17,35.37c0.06-0.04,0.13-0.07,0.19-0.11c0.51,0.48,1.03,0.95,1.51,1.45c-0.02,0.04-0.05,0.07-0.07,0.12
	c-0.07,0.2-0.15,0.39-0.23,0.59C71.12,36.72,70.65,36.04,70.17,35.37z M71.52,34.59c0.23-0.13,0.46-0.27,0.7-0.4
	c-0.03,0.32-0.06,0.63-0.09,0.95C71.93,34.95,71.72,34.77,71.52,34.59z M72.71,29.01c-2.28-3.35-4.58-6.68-6.88-10.02
	c-0.73-1.06-1.43-2.15-2.16-3.22c0-0.02,0.01-0.03,0.01-0.05c0.01,0.01,0.01,0.01,0.02,0.02c2.69,4.18,5.78,8.07,9.37,11.56
	c0.21,1.3,0.45,2.59,0.73,3.87c-0.33-0.54-0.68-1.06-1.05-1.56C72.84,29.43,72.85,29.22,72.71,29.01z M72.9,37.86
	c0.35,0.41,0.69,0.83,1.01,1.26c-0.26,0.31-0.53,0.62-0.8,0.93c-0.17-0.31-0.33-0.63-0.5-0.93C72.73,38.72,72.83,38.3,72.9,37.86z
	 M73.26,19.98c0.29,0.24,0.61,0.21,0.85,0.06c0.59,0.98,1.11,2.02,1.57,3.1c-0.04-0.01-0.08-0.01-0.12-0.01
	c-1.01-1.4-2.1-2.73-3.26-3.99C72.62,19.42,72.94,19.7,73.26,19.98z M63.58,12.86c1.56,1.33,3.09,2.69,4.57,4.1
	c0.24,0.33,0.48,0.67,0.73,1c1.88,2.51,3.75,5.16,6.22,7.12c0.12,0.83,0.25,1.65,0.39,2.48c-0.51-0.92-1.03-1.83-1.6-2.73
	c-0.19-0.3-0.65-0.34-0.91-0.16c-2.55-3.08-5.18-6.08-7.86-9.04c-0.58-0.85-1.14-1.71-1.67-2.58C63.5,13,63.54,12.93,63.58,12.86z
	 M62,16.02c2.1,4.24,4.7,8.2,7.77,11.82c0.01,0.03,0.01,0.07,0.02,0.1c0.61,1.54,1.22,3.07,1.83,4.6c-0.5,0.27-1,0.54-1.5,0.82
	c-0.4-0.34-0.79-0.67-1.21-1c0.28-0.22,0.45-0.62,0.23-0.98c-0.46-0.78-0.93-1.56-1.41-2.33c0.48,0.63,0.97,1.25,1.48,1.86
	c0.53,0.64,1.59-0.19,1.15-0.89c-2.25-3.57-4.58-7.09-6.89-10.63c-0.39-0.61-0.79-1.21-1.19-1.81c-0.26-0.57-0.53-1.13-0.77-1.71
	C61.69,15.91,61.85,15.97,62,16.02z M57.59,20.83c0.54,0.72,1.08,1.44,1.62,2.15c0.44,0.78,0.91,1.53,1.38,2.29
	c-0.03,0.02-0.07,0.04-0.1,0.05c-1.14-1.46-2.23-2.97-3.29-4.49C57.33,20.83,57.46,20.83,57.59,20.83z M56.81,14.98
	c0.51,0.67,1,1.35,1.48,2.04c-0.28-0.19-0.56-0.38-0.84-0.57C57.23,15.96,57.02,15.47,56.81,14.98z M59.1,26.03
	c-0.19,0.1-0.38,0.19-0.57,0.29c-0.19-0.22-0.38-0.45-0.57-0.67c-0.05-0.37-0.11-0.73-0.16-1.1C58.23,25.05,58.66,25.54,59.1,26.03z
	 M58.82,28.76c0.27,0.27,0.54,0.54,0.8,0.82c0.34,0.38,0.69,0.75,1.04,1.12c-0.68-0.59-1.35-1.2-2.01-1.81
	C58.71,28.85,58.77,28.81,58.82,28.76z M59.93,27.91c0.16-0.13,0.33-0.25,0.49-0.37c0.07,0.09,0.15,0.17,0.22,0.26
	c0.07,0.37,0.14,0.73,0.21,1.09C60.55,28.56,60.23,28.24,59.93,27.91z M59.21,20.05c0.31,0.16,0.63,0.31,0.95,0.46
	c1.91,3.56,4.11,6.96,6.59,10.18c-0.17-0.12-0.33-0.25-0.5-0.37c-0.03-0.02-0.07-0.03-0.1-0.05c-1.64-2.45-3.38-4.82-5.19-7.15
	C60.35,22.13,59.76,21.1,59.21,20.05z M58.92,15.01c0.05,0.02,0.1,0.03,0.15,0.05c0.69,0.86,1.35,1.74,1.99,2.66
	c0.31,0.71,0.64,1.41,0.98,2.11c-0.21-0.17-0.43-0.33-0.64-0.5c-0.49-0.73-0.98-1.46-1.48-2.18C59.57,16.44,59.24,15.73,58.92,15.01
	z M63.78,34.92c0.03,0.02,0.06,0.05,0.09,0.07c0.1,0.23,0.19,0.47,0.3,0.7c0.11,0.24,0.23,0.47,0.34,0.71
	c-0.18,0.1-0.35,0.19-0.53,0.28c-0.17-0.66-0.34-1.32-0.5-1.98C63.58,34.78,63.67,34.86,63.78,34.92z M65.38,53.92
	c-0.12,0.2-0.24,0.41-0.35,0.62c-1.86,1.45-3.79,2.82-5.75,4.16c-0.19,0.13-0.38,0.25-0.56,0.38c-0.41,0.01-0.81,0.04-1.21,0.09
	c0.69-0.48,1.4-0.94,2.09-1.41c0.13-0.05,0.26-0.1,0.38-0.15c0.2-0.08,0.33-0.22,0.41-0.38C62.05,56.11,63.72,55.01,65.38,53.92z
	 M55.03,57.43c-0.51,0.13-1.02,0.27-1.53,0.41c0.6-0.28,1.19-0.55,1.79-0.83c0.19-0.09,0.27-0.25,0.29-0.42
	c0.48-0.29,0.96-0.57,1.44-0.87c0.36-0.22,0.72-0.46,1.08-0.68c0.04-0.02,0.07-0.03,0.11-0.05c0.07-0.03,0.11-0.08,0.16-0.12
	c0.16-0.1,0.32-0.21,0.48-0.31c0.19,0.11,0.4,0.12,0.61,0.05C58.01,55.57,56.53,56.51,55.03,57.43z M54.92,64.82
	c0.66-0.16,1.32-0.31,1.98-0.5c0.53-0.15,0.63-0.71,0.41-1.09c1.09-0.75,2.17-1.52,3.24-2.31c1.7-1.26,3.39-2.56,5.07-3.85
	c-0.12,0.34-0.24,0.67-0.31,1.02c0,0.02,0,0.04,0,0.07c-1.6,1.26-3.21,2.47-4.78,3.69c-1.95,1.5-3.93,2.96-5.92,4.4
	c-0.51-0.12-1.02-0.21-1.54-0.28C53.68,65.6,54.3,65.22,54.92,64.82z M66.9,58.86c-0.02,0.04-0.04,0.09-0.06,0.13
	c-2.81,2.15-5.6,4.32-8.47,6.38c1.29-0.96,2.58-1.93,3.85-2.91C63.76,61.27,65.34,60.08,66.9,58.86z M66.25,44.4
	c0.07-0.09,0.14-0.17,0.2-0.26c0.13-0.07,0.26-0.15,0.39-0.22c0.04,0.06,0.08,0.12,0.12,0.17c0.01,0.01,0.01,0.01,0.02,0.02
	c-0.2,0.24-0.4,0.47-0.6,0.71C66.34,44.69,66.3,44.54,66.25,44.4z M66.15,61.42c0.01,0.03,0.01,0.06,0.03,0.09
	c-3.69,3.14-7.68,5.97-11.71,8.68c-0.05-0.09-0.12-0.17-0.2-0.23C58.38,67.36,62.26,64.39,66.15,61.42z M66.79,63.83
	c0.03,0.21,0.15,0.42,0.33,0.57c-0.29,0.24-0.58,0.48-0.88,0.72c-1.06,0.71-2.11,1.42-3.14,2.14C64.37,66.15,65.59,65,66.79,63.83z
	 M66.84,35.15c-0.11,0.06-0.21,0.11-0.32,0.17c-0.12-0.07-0.23-0.13-0.35-0.19c-0.38-0.32-0.74-0.64-1.1-0.94
	c-0.01-0.02-0.02-0.04-0.03-0.07c0.1-0.13,0.15-0.29,0.14-0.45c0.14-0.08,0.28-0.16,0.42-0.25c0.1,0.1,0.19,0.21,0.29,0.31
	c0.5,0.51,1.18,0.01,1.15-0.55c0.24,0.31,0.47,0.63,0.7,0.94c-0.11,0.06-0.21,0.13-0.29,0.24C67.25,34.64,67.04,34.89,66.84,35.15z
	 M50.11,3.48c3.94,1.02,7.54,3.29,10.97,5.79c-0.48-0.14-1.01,0.3-0.72,0.85c0.18,0.33,0.37,0.66,0.56,0.99
	c-0.12-0.08-0.27-0.1-0.41-0.06c-0.29-0.1-0.58-0.2-0.86-0.3c-0.01-0.01-0.03-0.03-0.04-0.04c-0.14-0.14-0.33-0.18-0.5-0.15
	c-1.81-0.61-3.62-1.21-5.44-1.78c0.34-0.02,0.68-0.04,1.02-0.06c0.57-0.03,0.89-0.71,0.47-1.14c-0.05-0.06-0.12-0.1-0.17-0.15
	c0.07,0,0.15,0,0.22,0c0.63-0.01,0.82-1.03,0.15-1.14c-1.5-0.25-3.01-0.46-4.51-0.64c-0.4-0.06-0.81-0.11-1.23-0.14
	c-0.93-0.11-1.86-0.21-2.79-0.3c0.73-0.07,1.46-0.13,2.19-0.19c0.75-0.06,0.97-1.14,0.18-1.36c-3.3-0.92-6.65-1.21-9.96-0.99
	C43.05,2.29,46.98,2.67,50.11,3.48z M52.22,16.07c-0.29-0.08-0.57-0.16-0.86-0.23c-0.52-0.58-1.04-1.15-1.55-1.72
	c0.03,0,0.07,0,0.1-0.01c0.92,0.73,1.86,1.42,2.82,2.09c0.6,1.05,1.23,2.09,1.87,3.12c-0.03,0-0.07,0-0.1,0
	c-0.66-0.72-1.31-1.44-1.96-2.17C52.82,16.8,52.78,16.23,52.22,16.07z M53,13.74c0.03,0,0.06-0.01,0.09-0.01
	c0.3-0.04,0.47-0.34,0.47-0.64c0.45,0.18,0.9,0.34,1.36,0.51c0.2,0.53,0.39,1.07,0.6,1.6C54.69,14.69,53.85,14.21,53,13.74z
	 M45.83,16.27c0.02,0.02,0.03,0.04,0.05,0.07c-0.11,0-0.22,0-0.33,0c-0.39-0.25-0.79-0.49-1.19-0.73c0.47,0.09,0.94,0.2,1.41,0.3
	C45.74,16.03,45.75,16.15,45.83,16.27z M44.77,11.87c1.13,0.05,2.33,0.41,3.51,0.91c0.05,0.04,0.09,0.08,0.14,0.12
	c-0.8,0.06-1.59,0.11-2.39,0.14C45.61,12.64,45.19,12.26,44.77,11.87z M48.83,14.18c-0.03,0.11-0.03,0.24,0.04,0.36
	c0.14,0.26,0.29,0.51,0.44,0.77c-0.37-0.09-0.74-0.18-1.11-0.27c-0.27-0.25-0.55-0.51-0.82-0.76
	C47.86,14.25,48.35,14.21,48.83,14.18z M43.55,8c-1.38,0.08-2.76,0.16-4.13,0.24c-0.51,0.03-1.03,0.06-1.56,0.08
	c0.15-0.12,0.31-0.24,0.46-0.36c0.13-0.1,0.21-0.22,0.25-0.36c0.45-0.07,0.91-0.11,1.36-0.17c0.86,0.01,1.71,0.03,2.57,0.04
	c0.21,0.09,0.42,0.17,0.63,0.26c0,0,0,0.01,0.01,0.01C43.27,7.83,43.41,7.91,43.55,8z M37.57,4.2c1.24-0.15,2.48-0.22,3.73-0.22
	c-1.25,0.26-2.51,0.5-3.77,0.71C37.61,4.52,37.62,4.35,37.57,4.2z M37.9,9.55c1.24-0.02,2.44-0.04,3.55-0.11
	c1.13-0.07,2.26-0.12,3.39-0.18c-0.01,0.19,0.05,0.39,0.18,0.51c0.29,0.29,0.59,0.57,0.89,0.85c-2.89-0.34-5.84-0.34-8.79-0.31
	C37.39,10.07,37.64,9.8,37.9,9.55z M36.32,11.61c2.11-0.03,4.21-0.06,6.3,0.03c0.03,0.05,0.04,0.11,0.09,0.16
	c0.46,0.43,0.92,0.85,1.37,1.28c-0.11,0-0.22,0-0.33,0c-0.29-0.28-0.78-0.34-1.03-0.01c-2.39,0-4.77-0.08-7.16-0.23
	C35.82,12.42,36.07,12.01,36.32,11.61z M38.73,24.3c0-0.43,0.01-0.91,0.02-1.42c0.27-0.18,0.53-0.36,0.8-0.54
	c0.04,0.4,0.09,0.79,0.13,1.19c0,0.09,0.01,0.17,0.01,0.26C39.37,23.96,39.05,24.13,38.73,24.3z M39.77,25.63
	c0.01,0.15,0.01,0.29,0.02,0.44c-0.38,0.28-0.75,0.56-1.13,0.85c0.01-0.23,0.01-0.47,0.02-0.7C39.04,26.02,39.4,25.82,39.77,25.63z
	 M39.4,16c-0.5-0.12-1-0.22-1.49-0.33c0.03-0.36,0.05-0.71,0.09-1.07c0.45,0.06,0.91,0.11,1.36,0.17c0,0.09,0.03,0.18,0.06,0.27
	c-0.03,0.07-0.05,0.15-0.04,0.24C39.38,15.52,39.39,15.76,39.4,16z M38.59,29.04c0.43-0.32,0.86-0.64,1.29-0.97
	c0,0.02,0,0.04,0,0.07c-0.1,0.64-0.2,1.29-0.3,1.94c-0.34,0.19-0.69,0.38-1.03,0.57c0-0.18,0-0.37,0-0.55
	C38.56,29.75,38.58,29.4,38.59,29.04z M37.15,31.43c-0.16,0.09-0.32,0.18-0.47,0.26c0.03-0.43,0.06-0.85,0.09-1.28
	c0.13-0.1,0.27-0.2,0.4-0.3C37.16,30.55,37.16,30.99,37.15,31.43z M37.16,33.93c-0.22,0.16-0.44,0.32-0.67,0.47
	c0.02-0.24,0.03-0.48,0.05-0.72c0.21-0.11,0.41-0.23,0.62-0.34C37.16,33.53,37.16,33.73,37.16,33.93z M34.78,14.2
	c0.63,0.07,1.25,0.16,1.88,0.24c-0.03,0.31-0.06,0.63-0.08,0.94c-0.72-0.16-1.44-0.33-2.16-0.48C34.53,14.66,34.65,14.43,34.78,14.2
	z M34.61,29.95c0.02-0.49,0.03-0.98,0.04-1.47c0.27-0.15,0.53-0.31,0.8-0.46c-0.04,0.47-0.09,0.93-0.14,1.4L34.61,29.95z
	 M35.09,31.67c-0.03,0.32-0.06,0.64-0.1,0.96c-0.17,0.09-0.33,0.18-0.5,0.28c0.01-0.27,0.02-0.54,0.03-0.82
	C34.71,31.95,34.9,31.81,35.09,31.67z M34.7,26.53c0.01-0.28,0.01-0.56,0.02-0.85c0.34-0.24,0.67-0.48,1.01-0.72
	c-0.03,0.34-0.06,0.68-0.09,1.03C35.32,26.17,35.01,26.35,34.7,26.53z M34.8,21.78c0.01-0.31,0.01-0.63,0.01-0.94
	c0.42,0,0.85,0.01,1.28,0.01c-0.01,0.11-0.02,0.23-0.03,0.34C35.64,21.38,35.22,21.57,34.8,21.78z M34.41,34.86
	c0.13-0.07,0.25-0.14,0.38-0.21c-0.03,0.34-0.07,0.69-0.1,1.03c-0.11,0.07-0.21,0.15-0.32,0.22C34.39,35.56,34.4,35.21,34.41,34.86z
	 M32.06,30.01c0.16-0.1,0.33-0.2,0.49-0.3c-0.04,0.62-0.09,1.25-0.13,1.87c-0.16,0.12-0.31,0.23-0.47,0.35
	C31.99,31.29,32.03,30.65,32.06,30.01z M29.19,11.5c0.12,0.01,0.23,0.02,0.35,0.02c-0.34,0.25-0.68,0.51-1.01,0.76
	c-0.15-0.01-0.31-0.03-0.46-0.04C28.44,11.99,28.81,11.74,29.19,11.5z M28.17,17.2c0.03-0.06,0.03-0.11,0.05-0.16
	c0.62-0.53,1.24-1.05,1.86-1.56c0.09,0.03,0.17,0.05,0.26,0.07c0,0.03-0.01,0.06-0.01,0.09c-0.71,0.83-1.42,1.66-2.1,2.51
	c-0.1-0.15-0.26-0.25-0.44-0.28C27.92,17.65,28.04,17.42,28.17,17.2z M29.17,19.5c0.34-0.39,0.68-0.77,1.02-1.16
	c-0.27,0.94-0.52,1.9-0.77,2.86c-0.09,0.05-0.17,0.1-0.26,0.15c0.12-0.4,0.23-0.8,0.35-1.19C29.61,19.86,29.42,19.61,29.17,19.5z
	 M30.11,31.2c0.04-0.02,0.08-0.05,0.12-0.07c-0.02,0.72-0.04,1.43-0.06,2.15c-0.13,0.09-0.25,0.19-0.38,0.28
	C29.89,32.77,30,31.98,30.11,31.2z M27.29,22.55c-0.16,0.1-0.31,0.21-0.47,0.32c0.12-0.37,0.22-0.74,0.35-1.11
	c0.28-0.32,0.57-0.64,0.85-0.97C27.78,21.38,27.54,21.97,27.29,22.55z M27.85,27.37c-0.15,0.56-0.29,1.12-0.43,1.68
	c-0.09,0.07-0.19,0.15-0.28,0.22c0.12-0.57,0.24-1.13,0.37-1.7C27.62,27.51,27.73,27.44,27.85,27.37z M21.32,11.02
	c0.14,0.23,0.42,0.36,0.71,0.15c1.77-1.28,3.54-2.55,5.4-3.67c-2.28,1.66-4.55,3.33-6.82,5c-0.35,0.26-0.32,0.7-0.1,0.96
	c-1.72,1.39-3.39,2.84-5.04,4.33C17.18,15.32,19.15,13.06,21.32,11.02z M26.12,28.41c-0.15,0.66-0.27,1.32-0.41,1.99
	c-0.15,0.12-0.31,0.25-0.46,0.37C25.54,29.98,25.82,29.19,26.12,28.41z M26.45,50.86c0.13-0.06,0.26-0.13,0.39-0.19
	c-0.06,1.19-0.05,2.38-0.01,3.56c-0.19,0.17-0.27,0.39-0.27,0.62c-0.28-1.18-0.55-2.37-0.8-3.56c0-0.12,0.02-0.25,0.02-0.37
	C25.97,50.99,26.2,50.98,26.45,50.86z M25.88,49.19c0.11-1.5,0.27-3,0.49-4.49l1.28-0.65c-0.06,1.35-0.08,2.7-0.07,4.06
	C27.01,48.46,26.44,48.83,25.88,49.19z M25.92,64.22c-0.07,0-0.14,0.01-0.21,0.01c-0.36-0.92-0.7-1.84-1.03-2.76
	C25.08,62.39,25.5,63.31,25.92,64.22z M22.05,50.9c0.34,0.61,1.41,0.52,1.5-0.28c0.32,1.64,0.64,3.27,0.95,4.91
	c0.16,1.08,0.36,2.14,0.59,3.2C23.97,56.16,22.86,53.6,22.05,50.9z M23.05,32.09c0-0.03,0-0.05,0-0.08
	c-0.01-0.55-0.51-0.76-0.92-0.65c0-0.13,0-0.25,0.01-0.38c0.04-0.09,0.08-0.18,0.11-0.27c0.44-0.27,0.87-0.54,1.31-0.8
	C23.37,30.64,23.21,31.37,23.05,32.09z M20.48,27.33c-0.23,0.07-0.4,0.27-0.38,0.59c0,0.04,0,0.08,0.01,0.13
	c-0.25,0.48-0.51,0.96-0.75,1.45c-0.13,0.26-0.26,0.52-0.39,0.77c-0.53,0.41-1.06,0.83-1.59,1.24c-0.01-0.1-0.04-0.19-0.09-0.27
	c0.65-1.16,1.33-2.31,2.04-3.44c1.6-2.55,3.34-5.01,5.15-7.41C23.05,22.66,21.73,24.97,20.48,27.33z M15.17,47.14
	c0.27,0.29,0.86,0.28,1.08-0.09c0.07-0.12,0.13-0.25,0.19-0.37c0.1,1.02,0.22,2.03,0.36,3.04c0.12,0.83,0.21,1.7,0.32,2.61
	c-0.11,0.15-0.17,0.33-0.12,0.54c0.1,0.37,0.21,0.74,0.32,1.11c0.29,2.3,0.69,4.68,1.54,6.76c-0.39-0.6-0.77-1.21-1.15-1.81
	C17.63,54.95,16.05,50.97,15.17,47.14z M16.08,56.27c-0.03-0.04-0.05-0.08-0.08-0.13c-0.37-1.18-0.62-2.43-0.77-3.7
	C15.57,53.72,15.88,55,16.08,56.27z M13.72,34.87c0.01-0.56,0.03-1.11,0.06-1.67c1.64-2.15,3.2-4.36,4.78-6.54
	c-0.28,0.43-0.57,0.85-0.84,1.29C16.49,29.96,14.95,32.35,13.72,34.87z M14.33,37.11c-0.17,0.88-0.3,1.76-0.4,2.65
	c-0.05-0.48-0.08-0.95-0.12-1.43C13.97,37.93,14.14,37.52,14.33,37.11z M10.04,31.76c0.17-1.17,0.37-2.33,0.63-3.48
	c0.32-0.69,0.65-1.38,0.99-2.07c2.62-2,4.69-4.68,7-7.02c1.07-1.09,2.18-2.14,3.3-3.18c0.25-0.13,0.49-0.27,0.73-0.41
	C18.08,20.68,13.71,25.96,10.04,31.76z M21.16,19.08c-0.73,0.91-1.46,1.81-2.17,2.74c-0.23,0.3-0.45,0.6-0.68,0.9
	c-0.9,1.1-1.79,2.21-2.66,3.33c-0.55,0.69-1.09,1.39-1.63,2.09c-0.02-0.03-0.04-0.06-0.07-0.09c2.24-3.12,4.66-6.09,7.18-8.98
	C21.14,19.07,21.15,19.07,21.16,19.08z M13.23,31.22c0.12-0.15,0.24-0.3,0.36-0.45c1.47-1.78,2.87-3.62,4.26-5.46
	c0.22-0.29,0.43-0.57,0.65-0.86c0.47-0.58,0.95-1.15,1.43-1.73c-2.23,2.94-4.33,6.01-6.55,8.97c-0.09-0.01-0.19-0.01-0.28,0.01
	C13.14,31.53,13.18,31.37,13.23,31.22z M15.97,35.2c-0.01,0.4-0.01,0.79-0.01,1.19c-0.17,0.36-0.35,0.73-0.52,1.11
	C15.58,36.73,15.75,35.96,15.97,35.2z M15,41.13c0.32-0.51,0.62-1.06,0.91-1.64c0.05-0.09,0.09-0.18,0.13-0.28
	c0.02,0.32,0.04,0.64,0.06,0.96c0,0.32-0.01,0.63,0,0.95c-0.44,1.8-0.8,3.62-1.05,5.49c-0.06-0.26-0.11-0.52-0.16-0.78
	C14.87,44.31,14.89,42.72,15,41.13z M18.42,12.95c-1.42,1.54-2.74,3.17-3.93,4.92c-0.17-0.17-0.43-0.24-0.69-0.1
	c-0.01,0-0.01,0.01-0.02,0.01C15.25,16.08,16.79,14.46,18.42,12.95z M14.28,19.98c3.01-2.75,6.1-5.42,9.37-7.84
	c-3.43,3-6.74,6.14-9.9,9.43C13.95,21.04,14.13,20.51,14.28,19.98z M6.71,52.01c-0.21-0.33-0.56-0.35-0.81-0.2
	c-0.07-0.21-0.12-0.43-0.18-0.64c-0.13-0.56-0.26-1.12-0.36-1.66c-0.01-0.06-0.04-0.09-0.08-0.12c-0.26-1.27-0.42-2.57-0.44-3.95
	c-0.01-0.67,0-1.36,0.01-2.06c0.02,0.09,0.04,0.19,0.06,0.28c0.04,0.14,0.12,0.24,0.22,0.31c0.01,0.08,0.01,0.17,0.02,0.25
	c0,0.02,0,0.03,0,0.05c0,0.11,0.02,0.2,0.05,0.28c0.07,0.55,0.15,1.1,0.25,1.65c0.41,2.29,1.04,4.54,1.85,6.72
	C7.12,52.61,6.91,52.31,6.71,52.01z M8.18,37.41c-0.16,0.38-0.33,0.76-0.48,1.16c-0.13,0.35,0.12,0.65,0.43,0.74
	c-0.01,0.47,0,0.93,0,1.4c-0.47,2.37-0.8,4.76-0.84,7.14c-0.33-1.44-0.58-2.9-0.74-4.38c0.37-3.05,0.98-6.05,1.84-8.99
	C8.29,35.45,8.22,36.43,8.18,37.41z M9.04,26.69c-0.15,0.17-0.17,0.38-0.11,0.55c-0.54,1.24-1.02,2.5-1.44,3.77
	c-0.05-0.12-0.15-0.22-0.27-0.28c0.08-0.35,0.16-0.7,0.25-1.05c0.37-1.11,0.71-1.96,0.85-1.9c0.13,0.06,0.32-0.04,0.26-0.2
	c-0.06-0.16-0.11-0.31-0.17-0.47c-0.02-0.07-0.07-0.12-0.12-0.17c1.02-2.88,2.54-5.58,4.9-7.37c-0.41,1.49-1.01,2.94-1.67,4.37
	c-0.01,0.01-0.02,0.02-0.03,0.03c-0.28-0.29-0.82-0.34-1.05,0.09c-0.41,0.78-0.8,1.57-1.16,2.36C9.2,26.51,9.12,26.6,9.04,26.69z
	 M10.98,57.3c-0.52-0.91-1-1.85-1.45-2.81c1.02-4.34-0.11-9.28-0.11-13.7c0-0.09,0-0.18,0-0.27c0.01-0.05,0.02-0.09,0.03-0.14
	c0.17-0.82,0.33-1.67,0.51-2.54c0.28-0.31,0.56-0.63,0.83-0.95c-0.3,2.18-0.43,4.39-0.36,6.61c0.01,0.3,0.03,0.6,0.05,0.89
	c-0.09,3.12,0.16,6.24,0.75,9.3c-0.02-0.03-0.04-0.06-0.06-0.09c-0.49-0.71-1.47-0.1-1.14,0.66c0.83,1.9,1.82,3.72,2.89,5.48
	c0.03,0.09,0.07,0.19,0.1,0.28C12.36,59.12,11.68,58.2,10.98,57.3z M13.13,53.04c-0.7-2.35-1.18-4.75-1.4-7.2
	c-0.01-0.76,0-1.51,0.03-2.27c0.19,0.23,0.51,0.33,0.8,0.14c0.17-0.11,0.33-0.23,0.49-0.36c0.1,0.65,0.21,1.3,0.33,1.94
	c0.07,0.39,0.17,0.78,0.26,1.18c0.01,1.99,0.06,4.22,0.33,6.42C13.7,52.71,13.34,52.8,13.13,53.04z M14.56,58.52
	c-0.06-0.96-0.29-1.88-0.58-2.82c0.51,1,1.03,1.99,1.57,2.98c0.17,0.36,0.37,0.7,0.58,1.03c0.92,1.64,1.88,3.26,2.86,4.86
	C17.46,62.59,15.99,60.57,14.56,58.52z M17.75,43.86c0.05-0.13,0.09-0.26,0.14-0.39c0.4,2.62,0.88,5.23,1.42,7.83
	c0.11,0.85,0.23,1.71,0.38,2.55C18.92,50.54,18.22,47.22,17.75,43.86z M24.36,64.38c-0.04,0.01-0.08,0.01-0.13,0.02
	c-0.08,0.01-0.15,0.06-0.2,0.1c-0.48-0.85-0.96-1.71-1.41-2.58c0.29-0.07,0.51-0.33,0.4-0.72c-0.33-1.16-0.65-2.33-0.95-3.5
	C22.74,59.96,23.52,62.18,24.36,64.38z M25.91,75.87c-1.16-0.58-2.35-1.15-3.48-1.81c0.02-0.02,0.05-0.03,0.07-0.05
	c2.94,1.81,6.34,3.08,9.79,3.91c1.85,0.83,3.86,1.41,5.76,1.77C33.77,79.36,29.88,77.85,25.91,75.87z M28.2,73.59
	c1.67,1.18,3.57,2.04,5.5,2.69c0.86,0.29,1.73,0.53,2.61,0.74c-0.18-0.02-0.36-0.05-0.54-0.07c-2.07-0.62-4.17-1.3-6.22-2.09
	C29.06,74.46,28.6,74.04,28.2,73.59z M36.85,75.72c-1.75-0.39-3.46-0.91-5.1-1.63c-0.23-0.1-0.52-0.23-0.82-0.36
	c1.02,0.25,2.04,0.48,3.06,0.71c2.25,0.8,4.63,1.5,7.03,1.91C39.62,76.23,38.23,76.03,36.85,75.72z M43.27,74.59
	c-0.44-0.03-0.88-0.08-1.31-0.13c-2.28-0.29-4.55-0.66-6.81-1.09c-0.01,0-0.02-0.01-0.03-0.01c-1.7-0.54-4.15-1.27-6.38-2.31
	c-0.15-0.3-0.31-0.61-0.45-0.91c0.27,0.08,0.54,0.18,0.78,0.25c0.01,0.01,0.01,0.02,0.02,0.03c0.23,0.41,0.65,0.4,0.93,0.19
	c0.76,0.15,1.51,0.31,2.27,0.48c1.89,0.44,3.76,0.95,5.63,1.47c1.8,0.5,3.6,1,5.39,1.5C43.22,74.22,43.22,74.41,43.27,74.59z
	 M38.19,70.91c-2.24-0.46-5.21-1.08-7.85-2.16c0.16-0.03,0.31-0.13,0.39-0.32c0.08-0.19,0.15-0.39,0.22-0.59
	c0.15-0.02,0.3-0.07,0.41-0.17c2.56,0.35,5.1,0.78,7.63,1.13c1.46,0.2,2.94,0.38,4.42,0.57c-0.06,0.5,0.33,1.06,0.92,0.84
	c0.45-0.17,0.9-0.36,1.34-0.54c1.09,0.15,2.18,0.32,3.25,0.52c-0.86,0.58-1.73,1.15-2.59,1.71C43.47,71.92,40.48,71.38,38.19,70.91z
	 M33.43,60.07c0.04-0.33,0.08-0.66,0.11-0.99c0.18-0.03,0.36-0.06,0.53-0.09c0.02,0.36,0.06,0.72,0.09,1.07
	C33.92,60.07,33.68,60.07,33.43,60.07z M35.44,54.94c-0.01-0.78,0-1.56,0.02-2.34c0.29-0.12,0.58-0.25,0.87-0.37
	c-0.1,0.76-0.2,1.53-0.3,2.29C35.82,54.65,35.63,54.8,35.44,54.94z M39.05,54.51c0.03,0.18,0.06,0.35,0.09,0.53
	c-0.04,0.31-0.07,0.62-0.11,0.92c-0.35,0.12-0.71,0.23-1.06,0.34c0.02-0.37,0.05-0.74,0.08-1.11
	C38.37,54.96,38.71,54.74,39.05,54.51z M38.29,52.95c0.07-0.58,0.15-1.13,0.21-1.65c0.01-0.01,0.03-0.01,0.04-0.02
	c0.07,0.46,0.13,0.91,0.2,1.37C38.59,52.75,38.43,52.85,38.29,52.95z M38.78,57.78c-0.11,0.74-0.23,1.48-0.36,2.22
	c-0.07,0-0.14,0-0.21,0c-0.14-0.63-0.23-1.28-0.26-1.97C38.22,57.95,38.5,57.87,38.78,57.78z M40.8,66.54
	c-0.08,0.08-0.14,0.17-0.22,0.26c-0.76-0.08-1.53-0.16-2.32-0.26C39.13,66.56,39.98,66.55,40.8,66.54z M44.26,67.16
	c0.4-0.18,0.8-0.35,1.19-0.54c0.54,0.03,1.09,0.06,1.63,0.09c-0.32,0.2-0.63,0.4-0.95,0.6C45.5,67.26,44.87,67.22,44.26,67.16z
	 M48.78,73.98c-0.37-0.15-0.77-0.27-1.18-0.37c0.21-0.1,0.43-0.19,0.64-0.3c0.67-0.06,1.34-0.16,1.98-0.3
	C49.74,73.34,49.26,73.66,48.78,73.98z M41.1,51.03c0.03-0.31,0.05-0.62,0.07-0.93c0.31-0.14,0.63-0.29,0.94-0.43
	c0.04,0.21,0.07,0.41,0.11,0.62C41.85,50.53,41.48,50.78,41.1,51.03z M65.16,70.46c-0.15,0.11-0.23,0.24-0.27,0.38
	c-3.95,2.69-8.36,4.59-13.01,5.64c1.46-0.68,2.89-1.44,4.28-2.27c1.39-0.75,2.75-1.57,4.08-2.54c0.15-0.11,0.3-0.23,0.46-0.34
	c1.25-0.83,2.49-1.66,3.74-2.47c1.36-0.89,2.78-1.79,4.14-2.76c0.18-0.01,0.34-0.08,0.47-0.23c0.07-0.09,0.14-0.18,0.21-0.26
	c0.37-0.27,0.74-0.55,1.09-0.84c-0.03,0.24-0.04,0.49-0.03,0.75c0.01,0.18,0.08,0.34,0.19,0.48C68.79,67.64,66.98,69.14,65.16,70.46
	z M74.37,56.13c-1.29,2-2.71,3.91-4.18,5.78c-0.14,0.11-0.28,0.21-0.42,0.32c1.59-2.05,3.19-4.18,4.65-6.4
	c0.01-0.01,0.02-0.01,0.03-0.02C74.42,55.93,74.39,56.03,74.37,56.13z M74.51,43.86c-0.73,0.68-1.43,1.39-2.11,2.05
	c-0.03-0.06-0.06-0.12-0.11-0.18c1.11-1.07,2.21-2.15,3.29-3.25C75.24,42.95,74.88,43.41,74.51,43.86z M75.6,53.95
	c1.01-1.7,1.91-3.46,2.63-5.26c0.18-0.25,0.37-0.5,0.56-0.74c-0.61,2.09-1.87,4.22-3.05,6.08C75.69,53.99,75.65,53.96,75.6,53.95z
	 M77.17,57.99c0.29-0.54,0.58-1.07,0.84-1.62c1.24-2.57,2.6-5.45,3.03-8.35c0.08-0.09,0.15-0.18,0.23-0.26
	C80.64,51.37,79.18,54.82,77.17,57.99z"/>
</svg>
