<?xml version="1.0" encoding="utf-8"?>
<!-- Generator: Adobe Illustrator 23.0.2, SVG Export Plug-In . SVG Version: 6.00 Build 0)  -->
<svg version="1.1" id="Calque_1" xmlns="http://www.w3.org/2000/svg" xmlns:xlink="http://www.w3.org/1999/xlink" x="0px" y="0px"
	 viewBox="0 0 112.35 109.98" style="enable-background:new 0 0 112.35 109.98;" xml:space="preserve">
<g>
	<path d="M17.05,44.02c-0.93-0.66-1.59-1.41-1.98-2.24c-0.36-0.78-0.73-3.25-1.1-7.41c-0.38-4.16-0.56-7.26-0.56-9.29V22.7
		c-0.03-0.69-0.04-1.45-0.04-2.29c0-1.56,0.09-3.1,0.27-4.62c0.12-0.75,0.28-1.39,0.47-1.93c0.19-0.54,0.47-1.06,0.83-1.57
		c0.66-1.02,1.65-1.69,2.96-2.02c0.69-0.18,1.45-0.27,2.29-0.27c0.57,0,1.15,0.17,1.73,0.49c0.58,0.33,0.88,0.72,0.88,1.17
		c0,0.33-0.24,0.49-0.72,0.49c-0.18,0-0.52-0.1-1.03-0.31c-0.45-0.21-0.85-0.31-1.21-0.31c-0.84,0-1.59,0.17-2.27,0.52
		c-0.67,0.34-1.21,0.8-1.59,1.37c-0.33,0.48-0.61,1.14-0.85,1.98c-0.24,0.84-0.39,1.68-0.45,2.51c-0.09,0.75-0.13,1.65-0.13,2.69
		l0.04,2.51c0.03,0.72,0.04,1.5,0.04,2.33c0,2.07,0.21,5.1,0.63,9.11c0.42,4.01,0.82,6.33,1.21,6.96c0.36,0.57,0.89,1,1.59,1.3
		c0.7,0.3,1.44,0.45,2.22,0.45c1.38,0,2.42-0.43,3.14-1.3c0.27-0.36,0.55-0.54,0.85-0.54c0.27,0,0.4,0.21,0.4,0.63
		c0,0.54-0.17,1.01-0.49,1.41c-0.33,0.4-0.78,0.71-1.35,0.92c-0.96,0.42-2.01,0.63-3.14,0.63C18.86,45.01,17.98,44.68,17.05,44.02z"
		/>
	<path d="M30.56,43.84c0.06-0.18,0.09-0.67,0.09-1.48c0-2.75,0.04-6.84,0.13-12.26c0.09-5.39,0.13-9.28,0.13-11.67l0.09-1.62
		l0.13-1.35c0-0.21,0.1-0.31,0.31-0.31c0.15,0,0.36,0.04,0.63,0.13l0.13,0.04c0,0.66-0.02,1.26-0.04,1.8v1.75v4.89
		c0.03,1.44,0.04,3.07,0.04,4.89c-0.03,0.15-0.04,0.48-0.04,0.99l-0.04,0.94c-0.03,0.6-0.04,1.21-0.04,1.84
		c0,0.69,0.01,1.32,0.04,1.89l0.04,1.93l-0.13,0.36l0.04-0.04c0,0.09-0.02,0.15-0.04,0.18v0.18c0,0.24,0.04,0.45,0.13,0.63
		l-0.13,4.31v0.27c0,0.51,0.01,0.81,0.04,0.9c0,0.15,0.07,0.22,0.22,0.22l2.33,0.09c0.69,0,1.16,0.01,1.41,0.02
		c0.25,0.02,0.41,0.02,0.47,0.02h0.13c0.15,0,0.3,0.08,0.45,0.25c0.15,0.16,0.22,0.34,0.22,0.52c0,0.36-0.24,0.55-0.72,0.58
		c-0.51-0.03-1.75-0.04-3.73-0.04l0.09,0.04c-0.3,0-0.58,0.01-0.85,0.04c-0.24,0.06-0.51,0.09-0.81,0.09
		C30.91,44.88,30.65,44.53,30.56,43.84z"/>
	<path d="M51.71,44.7c0,0-0.06-0.05-0.18-0.16c-0.12-0.11-0.21-0.38-0.27-0.83c-0.27-2.19-0.43-3.55-0.49-4.09l-0.22-1.8
		c-0.66-0.15-1.41-0.22-2.25-0.22l-1.62-0.09c-0.72-0.09-1.24-0.13-1.57-0.13c-0.18,0-0.28,0.08-0.31,0.22
		c0,0.09-0.02,0.13-0.04,0.13l-0.09,0.9c-0.03,0.54-0.2,1.62-0.49,3.23c-0.15,0.81-0.33,1.44-0.54,1.89
		c-0.24,0.51-0.46,0.76-0.67,0.76c-0.18,0-0.37-0.08-0.58-0.25c-0.21-0.16-0.31-0.34-0.31-0.52l0.04-0.13l0.04-0.13
		c0.54-2.13,0.99-4.24,1.35-6.33l0.54-2.78l0.54-3.41L45.07,28c0.15-0.81,0.42-2.11,0.81-3.91c0.42-2.04,0.67-3.43,0.76-4.18
		c0.03-0.09,0.09-0.64,0.18-1.66c0.12-1.14,0.22-1.98,0.31-2.51c0.09-0.78,0.18-1.23,0.27-1.35h0.31c0.09,0.03,0.19,0.04,0.31,0.04
		c0.36,0,0.63-0.09,0.81-0.27c0.21,0,0.4,0.07,0.56,0.2c0.16,0.13,0.25,0.29,0.25,0.47c0,1.44,0.1,3.08,0.31,4.94
		c0.12,0.96,0.21,1.75,0.27,2.38c0.33,3.86,1.17,11.11,2.51,21.73v0.13c0,0.3-0.12,0.52-0.36,0.67C51.94,44.7,51.71,44.7,51.71,44.7
		z M50.32,36.62c-0.3-4.31-0.87-10.67-1.71-19.08l-2.42,11.99c-0.69,3.44-1.03,5.61-1.03,6.51c0,0.15,0.57,0.29,1.71,0.4
		c1.14,0.12,2.14,0.18,3.01,0.18H50.32z"/>
	<path d="M60.64,43.84c-0.15,0-0.27,0.02-0.36,0.04h-0.36c-0.66,0-1.08-0.15-1.26-0.45c0-0.21,0.12-0.39,0.36-0.54l0.22-0.22h1.3
		l0.18-0.18l0.09-0.4l0.04-0.54c0-1.83-0.04-3.46-0.13-4.89L60.64,35l-0.09-3.28c0-1.17,0.04-2.92,0.13-5.25l0.09-5.21
		c0-2.27-0.07-4.01-0.22-5.21c-0.27-0.09-0.72-0.13-1.35-0.13l-0.49,0.04c-0.18,0.03-0.37,0.04-0.58,0.04
		c-0.57,0-0.85-0.25-0.85-0.76c0-0.12,0.13-0.24,0.4-0.36c0.27-0.12,0.49-0.18,0.67-0.18c1.14,0,2.27,0.06,3.41,0.18
		c0.69,0.03,1.38,0.17,2.07,0.4c0.54,0.18,0.81,0.43,0.81,0.76c0,0.06-0.04,0.18-0.13,0.36l-1.03,0.09
		c-0.21-0.18-0.64-0.27-1.3-0.27l-0.22,0.13c0.09,0.27,0.13,1.06,0.13,2.38c0,1.98-0.02,3.76-0.04,5.34l-0.09,5.34
		c0,1.35,0.06,2.98,0.18,4.89c0.09,2.19,0.13,3.83,0.13,4.94v0.58c-0.03,0.21-0.04,0.48-0.04,0.81c0,0.69,0.04,1.11,0.13,1.26
		L62.31,42c0,0.3,0.33,0.45,0.99,0.45c0.27,0,0.49-0.01,0.67-0.04h0.67c0.87,0,1.3,0.21,1.3,0.63c0,0.27-0.09,0.49-0.27,0.65
		s-0.42,0.25-0.72,0.25c-0.27,0-0.51-0.03-0.72-0.09c-0.24-0.03-0.49-0.04-0.76-0.04c-0.18,0-0.45,0.07-0.81,0.22
		c-0.36,0.18-0.63,0.27-0.81,0.27C61.17,44.29,60.76,44.14,60.64,43.84z"/>
	<path d="M78.78,44.83c-0.36-0.39-0.75-1.42-1.17-3.1c-0.42-1.68-0.81-3.56-1.17-5.66c-0.24-1.71-0.58-3.4-1.03-5.07
		c-0.36-1.5-0.7-2.25-1.03-2.25h-0.13c-0.66,0-0.99,0.21-0.99,0.63c0,2.16,0.12,5.43,0.36,9.83c0.12,2.69,0.25,4.27,0.4,4.71
		l-0.36,0.76h-0.63l-0.36-0.36c-0.48-13.83-0.72-23.26-0.72-28.29c0-0.33,0.02-0.6,0.07-0.81c0.04-0.21,0.14-0.4,0.29-0.58
		c0.12-0.21,0.33-0.31,0.63-0.31c1.53,0,2.75,0.37,3.68,1.12c0.93,0.75,1.39,1.83,1.39,3.23v3.28c0,0.57-0.19,1.33-0.56,2.29
		c-0.37,0.96-0.79,1.84-1.23,2.65l-0.58,1.12c0.33,1.53,0.98,4.27,1.95,8.24c0.97,3.97,1.5,6.07,1.59,6.31
		c0.03,0.03,0.07,0.1,0.11,0.22s0.14,0.3,0.29,0.54c0.21,0.42,0.31,0.78,0.31,1.08c0,0.42-0.16,0.63-0.49,0.63L78.78,44.83z
		 M75.01,26.78c0.45-0.57,0.81-1.3,1.08-2.2c0.48-1.83,0.72-3.28,0.72-4.35c0-0.69-0.04-1.26-0.11-1.71
		c-0.08-0.45-0.2-0.93-0.38-1.44c-0.36-1.05-1.21-1.57-2.56-1.57c-0.15,0-0.27,0.13-0.36,0.38c-0.09,0.25-0.13,0.52-0.13,0.79
		c0,2.01,0.03,3.82,0.09,5.43c0.03,1.62,0.04,3.43,0.04,5.43l0.09,0.09C74.05,27.64,74.56,27.35,75.01,26.78z"/>
	<path d="M86.73,43.93v-0.58c0.03-0.15,0.04-0.33,0.04-0.54l-0.18-0.18c0.24-0.63,0.36-1.24,0.36-1.84c0-0.69-0.04-1.68-0.13-2.96
		l-0.09-2.96c0-1.5,0.04-3.74,0.13-6.73c0.12-2.66,0.18-4.92,0.18-6.78l-0.09-2.69c-0.06-0.81-0.09-1.71-0.09-2.69
		c0-0.45,0.1-0.77,0.31-0.97c0.21-0.19,0.54-0.29,0.99-0.29c0.3,0,0.54,0.09,0.72,0.27c0.06,0.03,0.49,0.09,1.3,0.18
		c0.75,0.09,1.39,0.22,1.93,0.4c0.57,0.18,0.85,0.4,0.85,0.67c0,0.3-0.28,0.6-0.85,0.9c-1.71-0.57-2.92-0.85-3.64-0.85l-0.22,0.27
		c0.03,0.27,0.04,0.91,0.04,1.93c0,1.29-0.03,2.44-0.09,3.46c-0.03,1.05-0.04,2.22-0.04,3.5c0,0.84,0.21,1.26,0.63,1.26l0.72-0.04
		c0.24-0.03,0.49-0.04,0.76-0.04c1.17,0,1.75,0.27,1.75,0.81c0,0.33-0.07,0.61-0.22,0.83c-0.15,0.22-0.38,0.34-0.67,0.34
		c-0.45,0-0.79-0.12-1.03-0.36L88.66,28h-0.22l-0.22,0.22v0.13c0.06,0.51,0.09,1.69,0.09,3.55c0,1.17-0.02,2.23-0.04,3.19
		l-0.04,3.19c0,1.17,0.04,2.37,0.13,3.59c0.03,0.69,0.18,1.15,0.45,1.37c0.27,0.22,0.76,0.34,1.48,0.34l0.81-0.04
		c0.27-0.03,0.57-0.04,0.9-0.04c0.87,0,1.3,0.19,1.3,0.58c0,0.54-0.66,0.81-1.98,0.81h-3.68C87.09,44.88,86.79,44.56,86.73,43.93z"
		/>
	<path d="M14.76,93.11c-0.36-0.18-0.54-0.39-0.54-0.63c0-0.18,0.12-0.48,0.36-0.9c0.24-0.39,0.34-0.69,0.31-0.9l-0.13-3.95
		l-0.31-12.26l-0.09-5.43c-0.03-3.32-0.1-5.4-0.22-6.24c-0.06-0.33-0.18-0.7-0.36-1.12c-0.21-0.57-0.31-0.97-0.31-1.21
		c0-0.72,1.14-1.08,3.41-1.08h0.22c1.53,0,2.84,0.52,3.95,1.57c0.87,0.81,1.65,2.08,2.33,3.82c0.48,1.38,0.84,2.92,1.08,4.62
		c0.12,0.9,0.22,2.28,0.31,4.13v1.39c0,1.86-0.25,3.87-0.74,6.04c-0.49,2.17-1.19,4.2-2.09,6.08c-0.54,1.2-1.23,2.28-2.09,3.23
		C19,91.24,18.19,92,17.41,92.55c-0.78,0.55-1.3,0.83-1.57,0.83C15.48,93.38,15.12,93.29,14.76,93.11z M16.51,91.09
		c1.11-0.57,2.09-1.4,2.96-2.49c0.87-1.09,1.56-2.3,2.07-3.61c0.45-1.11,0.82-2.37,1.12-3.79c0.3-1.42,0.51-2.75,0.63-3.97
		c0.09-1.08,0.13-2.11,0.13-3.1c0-8.74-2.41-13.11-7.23-13.11c-0.63,0-0.94,0.17-0.94,0.49c0,1.05,0.06,2.29,0.18,3.73
		c0.12,1.47,0.18,2.71,0.18,3.73c0,1.65,0.12,4.51,0.36,8.58c0.21,3.53,0.31,6.38,0.31,8.53v5.03H16.51z"/>
	<path d="M30.92,92.93v-0.58c0.03-0.15,0.04-0.33,0.04-0.54l-0.18-0.18c0.24-0.63,0.36-1.24,0.36-1.84c0-0.69-0.04-1.68-0.13-2.96
		l-0.09-2.96c0-1.5,0.04-3.74,0.13-6.73c0.12-2.66,0.18-4.92,0.18-6.78l-0.09-2.69c-0.06-0.81-0.09-1.71-0.09-2.69
		c0-0.45,0.1-0.77,0.31-0.97c0.21-0.19,0.54-0.29,0.99-0.29c0.3,0,0.54,0.09,0.72,0.27c0.06,0.03,0.49,0.09,1.3,0.18
		c0.75,0.09,1.39,0.22,1.93,0.4c0.57,0.18,0.85,0.4,0.85,0.67c0,0.3-0.28,0.6-0.85,0.9c-1.71-0.57-2.92-0.85-3.64-0.85l-0.22,0.27
		c0.03,0.27,0.04,0.91,0.04,1.93c0,1.29-0.03,2.44-0.09,3.46c-0.03,1.05-0.04,2.22-0.04,3.5c0,0.84,0.21,1.26,0.63,1.26l0.72-0.04
		c0.24-0.03,0.49-0.04,0.76-0.04c1.17,0,1.75,0.27,1.75,0.81c0,0.33-0.07,0.61-0.22,0.83c-0.15,0.22-0.38,0.34-0.67,0.34
		c-0.45,0-0.79-0.12-1.03-0.36L32.85,77h-0.22l-0.22,0.22v0.13c0.06,0.51,0.09,1.69,0.09,3.55c0,1.17-0.02,2.23-0.04,3.19
		l-0.04,3.19c0,1.17,0.04,2.37,0.13,3.59c0.03,0.69,0.18,1.15,0.45,1.37c0.27,0.22,0.76,0.34,1.48,0.34l0.81-0.04
		c0.27-0.03,0.57-0.04,0.9-0.04c0.87,0,1.3,0.19,1.3,0.58c0,0.54-0.66,0.81-1.98,0.81h-3.68C31.28,93.88,30.98,93.56,30.92,92.93z
		 M33.46,62.4c-0.17-0.12-0.25-0.27-0.25-0.45c0-0.09,0.42-0.48,1.26-1.17l1.44-1.17l1.21-0.94c1.02-0.78,1.57-1.21,1.66-1.3
		c0.66,0,0.99,0.22,0.99,0.67l-0.13,0.72c-1.56,0.72-3.43,1.99-5.61,3.82C33.81,62.58,33.62,62.52,33.46,62.4z"/>
	<path d="M42.51,92.84c0.06-0.18,0.09-0.67,0.09-1.48c0-2.75,0.04-6.84,0.13-12.26c0.09-5.39,0.13-9.28,0.13-11.67l0.09-1.62
		l0.13-1.35c0-0.21,0.1-0.31,0.31-0.31c0.15,0,0.36,0.04,0.63,0.13l0.13,0.04c0,0.66-0.02,1.26-0.04,1.8v1.75v4.89
		c0.03,1.44,0.04,3.07,0.04,4.89c-0.03,0.15-0.04,0.48-0.04,0.99l-0.04,0.94c-0.03,0.6-0.04,1.21-0.04,1.84
		c0,0.69,0.01,1.32,0.04,1.89l0.04,1.93l-0.13,0.36l0.04-0.04c0,0.09-0.02,0.15-0.04,0.18v0.18c0,0.24,0.04,0.45,0.13,0.63
		l-0.13,4.31v0.27c0,0.51,0.01,0.81,0.04,0.9c0,0.15,0.07,0.22,0.22,0.22l2.33,0.09c0.69,0,1.16,0.01,1.41,0.02
		c0.25,0.02,0.41,0.02,0.47,0.02h0.13c0.15,0,0.3,0.08,0.45,0.25c0.15,0.16,0.22,0.34,0.22,0.52c0,0.36-0.24,0.55-0.72,0.58
		c-0.51-0.03-1.75-0.04-3.73-0.04l0.09,0.04c-0.3,0-0.58,0.01-0.85,0.04c-0.24,0.06-0.51,0.09-0.81,0.09
		C42.85,93.88,42.6,93.53,42.51,92.84z"/>
	<path d="M53.6,92.93v-0.58c0.03-0.15,0.04-0.33,0.04-0.54l-0.18-0.18c0.24-0.63,0.36-1.24,0.36-1.84c0-0.69-0.04-1.68-0.13-2.96
		l-0.09-2.96c0-1.5,0.04-3.74,0.13-6.73c0.12-2.66,0.18-4.92,0.18-6.78l-0.09-2.69c-0.06-0.81-0.09-1.71-0.09-2.69
		c0-0.45,0.1-0.77,0.31-0.97c0.21-0.19,0.54-0.29,0.99-0.29c0.3,0,0.54,0.09,0.72,0.27c0.06,0.03,0.49,0.09,1.3,0.18
		c0.75,0.09,1.39,0.22,1.93,0.4c0.57,0.18,0.85,0.4,0.85,0.67c0,0.3-0.28,0.6-0.85,0.9c-1.71-0.57-2.92-0.85-3.64-0.85l-0.22,0.27
		c0.03,0.27,0.04,0.91,0.04,1.93c0,1.29-0.03,2.44-0.09,3.46c-0.03,1.05-0.04,2.22-0.04,3.5c0,0.84,0.21,1.26,0.63,1.26l0.72-0.04
		c0.24-0.03,0.49-0.04,0.76-0.04c1.17,0,1.75,0.27,1.75,0.81c0,0.33-0.07,0.61-0.22,0.83c-0.15,0.22-0.38,0.34-0.67,0.34
		c-0.45,0-0.79-0.12-1.03-0.36L55.53,77H55.3l-0.22,0.22v0.13c0.06,0.51,0.09,1.69,0.09,3.55c0,1.17-0.02,2.23-0.04,3.19l-0.04,3.19
		c0,1.17,0.04,2.37,0.13,3.59c0.03,0.69,0.18,1.15,0.45,1.37c0.27,0.22,0.76,0.34,1.48,0.34l0.81-0.04c0.27-0.03,0.57-0.04,0.9-0.04
		c0.87,0,1.3,0.19,1.3,0.58c0,0.54-0.66,0.81-1.98,0.81h-3.68C53.96,93.88,53.66,93.56,53.6,92.93z M56.13,62.4
		c-0.17-0.12-0.25-0.27-0.25-0.45c0-0.09,0.42-0.48,1.26-1.17l1.44-1.17l1.21-0.94c1.02-0.78,1.57-1.21,1.66-1.3
		c0.66,0,0.99,0.22,0.99,0.67l-0.13,0.72c-1.56,0.72-3.43,1.99-5.61,3.82C56.49,62.58,56.3,62.52,56.13,62.4z"/>
	<path d="M65.76,93.83c-0.33-1.89-0.49-4.04-0.49-6.47c0-0.96,0.04-2.35,0.13-4.18l0.09-4.18c-0.21-0.42-0.31-0.76-0.31-1.03
		c0.3-0.48,0.45-1.86,0.45-4.13c0-5.45-0.08-8.35-0.22-8.71c0.27-0.75,0.48-1.12,0.63-1.12h1.98c0.33,0,0.8,0.16,1.41,0.47
		c0.61,0.31,1.13,0.65,1.55,1.01c0.75,0.69,1.12,2.46,1.12,5.3c0,1.53-0.04,2.69-0.13,3.5c-0.06,0.57-0.16,1.02-0.29,1.35
		c-0.13,0.33-0.34,0.7-0.61,1.12c-0.45,0.69-1.21,1.29-2.29,1.8c-0.45,0.24-1.08,0.48-1.89,0.72v5.34c0,0.75,0.07,2.22,0.22,4.4
		l0.09,1.44l0.09,2.92c0,0.54-0.28,0.81-0.85,0.81L65.76,93.83z M69.4,76.55c0.21-0.3,0.4-0.7,0.58-1.21c0.18-0.51,0.3-1,0.36-1.48
		c0.18-0.87,0.27-1.87,0.27-3.01v-1.21c0-0.42-0.02-0.82-0.04-1.21c-0.03-0.39-0.09-0.76-0.18-1.12c-0.12-0.39-0.28-0.71-0.47-0.97
		c-0.2-0.25-0.46-0.47-0.79-0.65c-0.36-0.18-0.79-0.27-1.3-0.27c-0.36,0-0.61,0.09-0.76,0.27c-0.15,0.18-0.22,0.49-0.22,0.94
		c0,0.72,0.04,1.8,0.13,3.23l0.09,3.23c0,0.78-0.03,1.48-0.09,2.11l-0.09,2.11l0.31,0.45C68.07,77.76,68.8,77.35,69.4,76.55z"/>
	<path d="M76.9,92.93v-0.58c0.03-0.15,0.04-0.33,0.04-0.54l-0.18-0.18c0.24-0.63,0.36-1.24,0.36-1.84c0-0.69-0.04-1.68-0.13-2.96
		l-0.09-2.96c0-1.5,0.04-3.74,0.13-6.73c0.12-2.66,0.18-4.92,0.18-6.78l-0.09-2.69c-0.06-0.81-0.09-1.71-0.09-2.69
		c0-0.45,0.1-0.77,0.31-0.97c0.21-0.19,0.54-0.29,0.99-0.29c0.3,0,0.54,0.09,0.72,0.27c0.06,0.03,0.49,0.09,1.3,0.18
		c0.75,0.09,1.39,0.22,1.93,0.4c0.57,0.18,0.85,0.4,0.85,0.67c0,0.3-0.28,0.6-0.85,0.9c-1.71-0.57-2.92-0.85-3.64-0.85l-0.22,0.27
		c0.03,0.27,0.04,0.91,0.04,1.93c0,1.29-0.03,2.44-0.09,3.46c-0.03,1.05-0.04,2.22-0.04,3.5c0,0.84,0.21,1.26,0.63,1.26l0.72-0.04
		c0.24-0.03,0.49-0.04,0.76-0.04c1.17,0,1.75,0.27,1.75,0.81c0,0.33-0.07,0.61-0.22,0.83c-0.15,0.22-0.38,0.34-0.67,0.34
		c-0.45,0-0.79-0.12-1.03-0.36L78.83,77H78.6l-0.22,0.22v0.13c0.06,0.51,0.09,1.69,0.09,3.55c0,1.17-0.02,2.23-0.04,3.19l-0.04,3.19
		c0,1.17,0.04,2.37,0.13,3.59c0.03,0.69,0.18,1.15,0.45,1.37c0.27,0.22,0.76,0.34,1.48,0.34l0.81-0.04c0.27-0.03,0.57-0.04,0.9-0.04
		c0.87,0,1.3,0.19,1.3,0.58c0,0.54-0.66,0.81-1.98,0.81H77.8C77.26,93.88,76.96,93.56,76.9,92.93z M79.44,62.4
		c-0.17-0.12-0.25-0.27-0.25-0.45c0-0.09,0.42-0.48,1.26-1.17l1.44-1.17l1.21-0.94c1.02-0.78,1.57-1.21,1.66-1.3
		c0.66,0,0.99,0.22,0.99,0.67l-0.13,0.72c-1.56,0.72-3.43,1.99-5.61,3.82C79.79,62.58,79.6,62.52,79.44,62.4z"/>
	<path d="M88.39,92.93v-0.58c0.03-0.15,0.04-0.33,0.04-0.54l-0.18-0.18c0.24-0.63,0.36-1.24,0.36-1.84c0-0.69-0.04-1.68-0.13-2.96
		l-0.09-2.96c0-1.5,0.04-3.74,0.13-6.73c0.12-2.66,0.18-4.92,0.18-6.78l-0.09-2.69c-0.06-0.81-0.09-1.71-0.09-2.69
		c0-0.45,0.1-0.77,0.31-0.97c0.21-0.19,0.54-0.29,0.99-0.29c0.3,0,0.54,0.09,0.72,0.27c0.06,0.03,0.49,0.09,1.3,0.18
		c0.75,0.09,1.39,0.22,1.93,0.4c0.57,0.18,0.85,0.4,0.85,0.67c0,0.3-0.28,0.6-0.85,0.9c-1.71-0.57-2.92-0.85-3.64-0.85l-0.22,0.27
		c0.03,0.27,0.04,0.91,0.04,1.93c0,1.29-0.03,2.44-0.09,3.46c-0.03,1.05-0.04,2.22-0.04,3.5c0,0.84,0.21,1.26,0.63,1.26l0.72-0.04
		c0.24-0.03,0.49-0.04,0.76-0.04c1.17,0,1.75,0.27,1.75,0.81c0,0.33-0.07,0.61-0.22,0.83c-0.15,0.22-0.38,0.34-0.67,0.34
		c-0.45,0-0.79-0.12-1.03-0.36L90.32,77H90.1l-0.22,0.22v0.13c0.06,0.51,0.09,1.69,0.09,3.55c0,1.17-0.02,2.23-0.04,3.19l-0.04,3.19
		c0,1.17,0.04,2.37,0.13,3.59c0.03,0.69,0.18,1.15,0.45,1.37c0.27,0.22,0.76,0.34,1.48,0.34l0.81-0.04c0.27-0.03,0.57-0.04,0.9-0.04
		c0.87,0,1.3,0.19,1.3,0.58c0,0.54-0.66,0.81-1.98,0.81h-3.68C88.75,93.88,88.45,93.56,88.39,92.93z"/>
</g>
</svg>
